<?xml version="1.0" standalone="no"?>
<!DOCTYPE svg PUBLIC "-//W3C//DTD SVG 20010904//EN"
 "http://www.w3.org/TR/2001/REC-SVG-20010904/DTD/svg10.dtd">
<svg version="1.0" xmlns="http://www.w3.org/2000/svg"
 width="244.000000pt" height="300.000000pt" viewBox="0 0 244.000000 300.000000"
 preserveAspectRatio="xMidYMid meet">
<metadata>
Created by potrace 1.10, written by Peter Selinger 2001-2011
</metadata>
<g transform="translate(0.000000,300.000000) scale(0.100000,-0.100000)"
fill="#000000" stroke="none">
<path d="M1180 2543 c-14 -10 -128 -80 -255 -155 -126 -76 -237 -143 -245
-148 -8 -6 -87 -53 -175 -105 -88 -51 -170 -101 -182 -109 -12 -9 -27 -16 -32
-16 -25 0 -8 -21 32 -40 23 -11 62 -32 86 -45 49 -28 67 -24 110 28 55 65 110
98 186 113 21 4 70 26 109 50 39 24 98 59 131 79 33 19 111 66 173 105 61 38
112 65 112 61 0 -4 12 -13 27 -20 14 -7 49 -27 77 -45 47 -30 268 -164 433
-261 68 -40 83 -49 179 -110 l50 -33 -1 -86 c-1 -47 2 -86 6 -86 7 0 100 -55
139 -83 13 -9 28 -17 32 -17 5 0 8 83 8 184 l0 184 -37 23 c-71 44 -178 107
-243 145 -36 20 -87 51 -115 69 -114 73 -545 327 -562 331 -10 3 -29 -3 -43
-13z m575 -326 c83 -49 161 -96 175 -104 14 -7 68 -40 120 -72 l95 -58 3 -158
4 -157 -24 7 c-41 13 -108 65 -106 83 1 9 0 46 0 82 l-2 66 -87 53 c-49 30
-124 77 -168 104 -44 27 -160 96 -257 153 -97 57 -194 115 -214 129 -71 48
-73 48 -274 -80 -127 -81 -284 -166 -335 -181 -70 -20 -135 -62 -187 -117 -36
-39 -37 -40 -70 -26 -18 7 -50 23 -71 35 l-38 21 33 20 c18 11 119 72 223 135
105 63 250 151 323 194 73 43 167 100 210 126 42 26 86 51 96 56 19 9 48 -8
551 -311z"/>
<path d="M747 2009 c-158 -24 -251 -131 -251 -289 1 -85 18 -132 67 -180 33
-32 111 -73 162 -86 17 -4 35 -10 40 -14 6 -4 37 -13 70 -20 33 -7 65 -16 70
-20 6 -4 27 -13 48 -20 71 -23 109 -108 69 -155 -40 -47 -71 -58 -165 -57 -49
1 -94 5 -100 10 -7 5 -32 14 -56 21 -45 13 -114 52 -126 71 -11 18 -22 11 -50
-32 -16 -24 -37 -56 -48 -72 -22 -32 -27 -26 65 -81 32 -19 77 -39 100 -46 24
-6 54 -16 67 -23 14 -6 76 -11 150 -11 111 0 133 3 181 24 123 53 171 118 178
242 3 59 0 91 -12 124 -22 56 -103 130 -159 147 -23 6 -46 15 -52 18 -5 4 -35
13 -65 20 -30 7 -59 16 -65 20 -5 4 -34 13 -63 20 -111 26 -159 124 -94 190
17 16 46 32 68 36 48 9 178 -9 219 -30 17 -9 35 -16 41 -16 6 0 23 -9 37 -20
l25 -20 16 25 c9 13 16 27 16 31 0 4 13 28 29 54 l29 48 -56 27 c-32 15 -64
30 -73 35 -49 25 -228 42 -312 29z m293 -48 c36 -12 75 -30 88 -40 l23 -17
-28 -52 c-15 -29 -31 -52 -36 -52 -4 0 -25 9 -47 20 -88 45 -239 63 -304 36
-67 -28 -96 -108 -63 -173 28 -53 86 -83 227 -118 154 -38 220 -75 268 -148
23 -37 27 -52 27 -122 0 -107 -31 -169 -111 -222 -34 -22 -154 -53 -205 -53
-77 0 -239 38 -304 71 -89 46 -89 46 -54 102 17 26 35 47 40 47 5 0 33 -13 62
-29 73 -41 207 -75 273 -68 65 7 127 38 142 72 19 42 15 109 -9 139 -29 37
-62 52 -217 97 -147 42 -181 57 -225 98 -49 44 -67 92 -67 174 0 98 34 168
104 215 69 46 96 52 231 48 93 -2 135 -8 185 -25z"/>
<path d="M1190 1716 l0 -85 243 -3 244 -3 37 -29 c50 -38 69 -85 64 -158 -3
-47 -10 -64 -33 -88 -50 -52 -80 -60 -224 -60 l-131 0 0 120 0 120 -100 0
c-60 0 -100 -4 -100 -10 0 -5 5 -10 10 -10 20 0 67 -90 80 -151 11 -50 11 -74
1 -123 -13 -66 -41 -128 -72 -162 -18 -19 -19 -34 -17 -138 l3 -117 98 -2 97
-2 0 153 0 152 98 0 98 0 17 -32 c25 -48 274 -436 294 -458 2 -2 16 4 31 13
15 10 48 30 74 45 26 15 48 31 48 35 0 4 -49 83 -110 175 -129 197 -130 198
-152 227 -23 30 -23 32 9 40 44 11 106 68 138 126 25 47 30 67 33 152 4 83 1
106 -18 157 -28 74 -83 133 -158 168 -57 27 -59 27 -329 30 l-273 3 0 -85z
m596 32 c65 -34 124 -101 147 -166 24 -69 22 -171 -4 -243 -22 -61 -95 -145
-134 -155 -29 -7 -49 -41 -35 -57 16 -17 260 -391 260 -397 0 -3 -25 -20 -55
-38 -64 -39 -57 -43 -133 73 -66 101 -57 86 -155 240 l-83 130 -100 3 c-74 2
-104 -1 -112 -10 -6 -8 -12 -70 -13 -151 l-2 -137 -78 0 -78 0 3 103 c3 97 5
105 40 162 47 77 59 123 54 210 -3 52 -11 86 -34 133 l-30 62 60 0 61 0 1
-104 c0 -70 5 -110 13 -120 26 -31 341 -18 341 14 0 5 9 12 20 15 32 10 60 76
60 139 0 68 -12 102 -51 139 -56 53 -79 57 -313 57 l-214 0 -4 66 -3 66 260
-4 c259 -4 260 -4 311 -30z"/>
<path d="M260 971 l0 -180 25 -13 c14 -7 117 -68 228 -134 111 -67 267 -160
347 -207 80 -47 150 -91 157 -96 7 -6 14 -11 17 -11 2 0 45 -25 94 -55 l89
-55 107 63 c58 34 121 71 140 82 19 11 98 58 175 105 78 47 150 89 161 95 11
5 20 13 20 18 0 4 -21 38 -47 76 l-47 68 -50 -30 c-151 -90 -223 -133 -237
-142 -9 -5 -45 -27 -80 -48 -35 -21 -80 -48 -99 -61 l-36 -24 -36 22 c-20 11
-90 53 -155 92 -65 40 -172 104 -238 143 -66 39 -127 75 -135 81 -8 6 -61 38
-117 71 l-103 61 0 77 0 78 -51 29 c-28 16 -60 34 -71 40 -11 7 -25 17 -31 23
-6 6 -15 11 -19 11 -4 0 -8 -81 -8 -179z m115 88 c42 -29 45 -34 44 -72 -4
-99 -2 -105 44 -134 23 -14 80 -49 127 -76 103 -60 100 -58 302 -180 90 -54
195 -118 233 -142 39 -24 81 -44 94 -45 13 0 129 64 263 145 133 80 242 144
243 143 1 -2 15 -26 33 -55 34 -57 33 -61 -33 -97 -16 -9 -42 -24 -57 -34 -34
-21 -265 -159 -367 -219 -40 -23 -77 -43 -81 -43 -7 0 -131 71 -200 115 -19
12 -64 40 -100 61 -36 22 -72 44 -82 49 -9 6 -49 29 -90 53 -40 24 -93 56
-118 71 -25 15 -111 67 -192 115 l-148 87 0 155 c0 176 -8 166 85 103z"/>
</g>
</svg>
